<?xml version="1.0" encoding="UTF-8"?><svg id="b" xmlns="http://www.w3.org/2000/svg" viewBox="0 0 1138.72 226"><g id="c"><path d="M148.27,154.59v38.18c0,6.04-4.67,10.71-10.71,10.71s-10.71-4.67-10.71-10.71v-118.43c0-6.04,4.67-10.71,10.71-10.71s10.71,4.68,10.71,10.71v1.36c8.57-7.79,19.87-12.27,32.34-12.27,28.05,0,49.28,22.79,49.28,51.62s-21.23,51.62-49.28,51.62c-12.47,0-23.77-4.48-32.34-12.08ZM208.27,115.05c0-18.12-13.25-31.75-30-31.75s-29.41,13.05-30,30.39v1.36c0,18.12,13.25,31.75,30,31.75s30-13.64,30-31.75Z" fill="#0084ff" stroke-width="0"/><path d="M328.26,154.59c-8.57,7.6-19.87,12.08-32.34,12.08-28.05,0-49.28-22.79-49.28-51.62s21.23-51.62,49.28-51.62c12.47,0,23.77,4.48,32.34,12.27v-1.36c0-6.04,4.67-10.71,10.71-10.71s10.71,4.68,10.71,10.71v81.23c0,6.04-4.67,10.91-10.71,10.91s-10.71-4.87-10.71-10.91v-.97ZM328.26,115.05v-1.36c-.78-17.34-13.64-30.39-30-30.39s-30,13.64-30,31.75,13.25,31.75,30,31.75,30-13.64,30-31.75Z" fill="#0084ff" stroke-width="0"/><path d="M374.61,37.33c0-6.04,4.67-10.71,10.71-10.71s10.71,4.67,10.71,10.71v118.24c0,6.04-4.67,10.91-10.71,10.91s-10.71-4.87-10.71-10.91V37.33ZM403.83,122.45c-1.56-2.14-2.92-4.87-2.92-7.99,0-2.34,1.17-5.45,2.92-7.4l33.5-39.93c2.14-2.34,4.29-3.51,7.4-3.51,5.65,0,10.13,4.09,10.13,9.74,0,2.34-.58,4.48-2.34,6.43l-28.25,33.7,29.8,35.26c1.56,1.95,2.53,4.67,2.53,7.01,0,6.04-5.26,10.71-10.91,10.71-2.92,0-6.04-1.36-7.99-3.9l-33.89-40.13Z" fill="#0084ff" stroke-width="0"/><path d="M466.16,115.05c0-28.83,22.01-51.62,51.62-51.62,15.19,0,27.08,6.04,33.7,12.08,2.34,2.14,3.9,5.06,3.9,8.18,0,2.73-.78,5.06-3.12,7.79l-30,35.65c-2.14,2.53-4.48,3.51-7.4,3.51-5.84,0-10.13-4.09-10.13-9.74,0-2.34.58-4.67,2.34-6.43l23.57-27.66c-3.31-2.34-8.57-3.51-12.86-3.51-16.75,0-30,14.03-30,31.75s13.05,31.75,30,31.75c9.16,0,15.97-3.9,20.65-8.77,3.12-2.53,5.26-4.87,9.35-4.87,6.04,0,10.52,4.29,10.52,10.32,0,2.14-1.17,4.87-3.12,7.01-7.4,8.96-20.84,16.17-37.4,16.17-29.41,0-51.62-22.79-51.62-51.62Z" fill="#0084ff" stroke-width="0"/><path d="M563.95,75.31c0-5.65,4.48-9.93,9.93-9.93h7.01v-14.61c0-6.04,4.67-10.71,10.71-10.71s10.71,4.67,10.71,10.71v14.61h22.79c5.45,0,9.93,4.29,9.93,9.93s-4.48,9.93-9.93,9.93h-22.79v35.26c0,17.14,9.55,25.91,22.79,25.91,5.45,0,9.93,4.48,9.93,9.93s-4.48,10.13-9.93,10.13c-25.13,0-44.22-17.73-44.22-45.97v-35.26h-7.01c-5.45,0-9.93-4.48-9.93-9.93Z" fill="#0084ff" stroke-width="0"/><rect y="161.64" width="64.36" height="64.36" rx="17.03" ry="17.03" fill="#0084ff" stroke-width="0"/><rect y="80.82" width="64.36" height="64.36" rx="17.03" ry="17.03" fill="#9aceff" stroke-width="0"/><rect y="0" width="64.36" height="64.36" rx="17.03" ry="17.03" fill="#0084ff" stroke-width="0"/><text transform="translate(778.72 152.81)" fill="#333" font-family="ArialRoundedMTBold, &apos;Arial Rounded MT Bold&apos;" font-size="122.47"><tspan x="0" y="0">DOCS</tspan></text><line x1="706.72" x2="706.72" y2="225" fill="none" stroke="#000" stroke-miterlimit="10" stroke-width="10"/></g></svg>